<?xml version="1.0" encoding="UTF-8" standalone="no"?>
<!-- Created with Inkscape (http://www.inkscape.org/) -->

<svg
   xmlns:dc="http://purl.org/dc/elements/1.1/"
   xmlns:cc="http://creativecommons.org/ns#"
   xmlns:rdf="http://www.w3.org/1999/02/22-rdf-syntax-ns#"
   xmlns:svg="http://www.w3.org/2000/svg"
   xmlns="http://www.w3.org/2000/svg"
   xmlns:sodipodi="http://sodipodi.sourceforge.net/DTD/sodipodi-0.dtd"
   xmlns:inkscape="http://www.inkscape.org/namespaces/inkscape"
   width="16"
   height="16"
   id="svg2"
   version="1.1"
   inkscape:version="0.92.2 2405546, 2018-03-11"
   inkscape:export-filename="/all/newlab/icons/graypaint/_src/16x16/actions/._copy_02.png"
   inkscape:export-xdpi="90"
   inkscape:export-ydpi="90"
   sodipodi:docname="file_new_01.svg">
  <defs
     id="defs4" />
  <sodipodi:namedview
     id="base"
     pagecolor="#ffffff"
     bordercolor="#666666"
     borderopacity="1.0"
     inkscape:pageopacity="0.0"
     inkscape:pageshadow="2"
     inkscape:zoom="31.678384"
     inkscape:cx="-1.3886773"
     inkscape:cy="8.2369065"
     inkscape:document-units="px"
     inkscape:current-layer="layer1"
     showgrid="true"
     inkscape:window-width="1920"
     inkscape:window-height="1024"
     inkscape:window-x="0"
     inkscape:window-y="34"
     inkscape:window-maximized="1"
     inkscape:snap-bbox="true">
    <inkscape:grid
       type="xygrid"
       id="grid2985"
       empspacing="5"
       visible="true"
       enabled="true"
       snapvisiblegridlinesonly="true" />
  </sodipodi:namedview>
  <metadata
     id="metadata7">
    <rdf:RDF>
      <cc:Work
         rdf:about="">
        <dc:format>image/svg+xml</dc:format>
        <dc:type
           rdf:resource="http://purl.org/dc/dcmitype/StillImage" />
        <dc:title />
      </cc:Work>
    </rdf:RDF>
  </metadata>
  <g
     inkscape:label="Layer 1"
     inkscape:groupmode="layer"
     id="layer1"
     transform="translate(0,-1036.3622)">
    <path
       style="fill:#525252;fill-opacity:1;stroke:none"
       d="M 4 2 C 3.4459904 2 3 2.4459904 3 3 L 3 13 C 3 13.55401 3.4459904 14 4 14 L 12 14 C 12.55401 14 13 13.55401 13 13 L 13 3 C 13 2.4459904 12.55401 2 12 2 L 4 2 z M 7 3 C 7.554 3 8 3.4459904 8 4 L 8 5 L 9 5 C 9.5540096 5 10 5.446 10 6 C 10 6.554 9.5540096 7 9 7 L 8 7 L 8 8 C 8 8.5540096 7.554 9 7 9 C 6.446 9 6 8.5540096 6 8 L 6 7 L 5 7 C 4.4459904 7 4 6.554 4 6 C 4 5.446 4.4459904 5 5 5 L 6 5 L 6 4 C 6 3.4459904 6.446 3 7 3 z "
       transform="translate(0,1036.3622)"
       id="rect3821" />
  </g>
</svg>
