<?xml version="1.0" encoding="UTF-8" standalone="no"?>
<!-- Created with Inkscape (http://www.inkscape.org/) -->

<svg
   xmlns:dc="http://purl.org/dc/elements/1.1/"
   xmlns:cc="http://creativecommons.org/ns#"
   xmlns:rdf="http://www.w3.org/1999/02/22-rdf-syntax-ns#"
   xmlns:svg="http://www.w3.org/2000/svg"
   xmlns="http://www.w3.org/2000/svg"
   xmlns:sodipodi="http://sodipodi.sourceforge.net/DTD/sodipodi-0.dtd"
   xmlns:inkscape="http://www.inkscape.org/namespaces/inkscape"
   width="16"
   height="16"
   id="svg2"
   version="1.1"
   inkscape:version="0.92.2 2405546, 2018-03-11"
   inkscape:export-filename="/all/lab/icontheme/graydot/_src/16x16/actions/._go_home_02.png"
   inkscape:export-xdpi="90"
   inkscape:export-ydpi="90"
   sodipodi:docname="go_home_03.svg">
  <defs
     id="defs4" />
  <sodipodi:namedview
     id="base"
     pagecolor="#ffffff"
     bordercolor="#666666"
     borderopacity="1.0"
     inkscape:pageopacity="0.0"
     inkscape:pageshadow="2"
     inkscape:zoom="31.678384"
     inkscape:cx="11.496113"
     inkscape:cy="7.9168269"
     inkscape:document-units="px"
     inkscape:current-layer="layer1"
     showgrid="true"
     inkscape:window-width="1920"
     inkscape:window-height="1024"
     inkscape:window-x="0"
     inkscape:window-y="34"
     inkscape:window-maximized="1"
     inkscape:snap-bbox="true"
     inkscape:object-nodes="true">
    <inkscape:grid
       type="xygrid"
       id="grid2985"
       empspacing="5"
       visible="true"
       enabled="true"
       snapvisiblegridlinesonly="true" />
  </sodipodi:namedview>
  <metadata
     id="metadata7">
    <rdf:RDF>
      <cc:Work
         rdf:about="">
        <dc:format>image/svg+xml</dc:format>
        <dc:type
           rdf:resource="http://purl.org/dc/dcmitype/StillImage" />
        <dc:title />
      </cc:Work>
    </rdf:RDF>
  </metadata>
  <g
     inkscape:label="Layer 1"
     inkscape:groupmode="layer"
     id="layer1"
     transform="translate(0,-1036.3622)">
    <path
       style="fill:#525252;fill-opacity:1;stroke:none"
       d="m 20,1045.3622 c 0,0 3,-3 4,-4 0.707107,-0.7071 1.292893,-0.7071 2,0 1,1 4,4 4,4 l 0,3 -1,0 0,2 -3,0 0,-4 -2,0 0,4 -3,0 0,-2 -1,0 z"
       id="rect3006"
       inkscape:connector-curvature="0"
       sodipodi:nodetypes="csscccccccccccc" />
    <rect
       style="fill:#525252;fill-opacity:1;stroke:none"
       id="rect2985"
       width="3"
       height="4"
       x="20"
       y="1046.3622"
       rx="1"
       ry="1" />
    <rect
       style="fill:#525252;fill-opacity:1;stroke:none"
       id="rect2985-8"
       width="3"
       height="4"
       x="27"
       y="1046.3622"
       rx="1"
       ry="1" />
    <path
       style="fill:none;stroke:#525252;stroke-width:2;stroke-linecap:round;stroke-linejoin:miter;stroke-miterlimit:4;stroke-dasharray:none;stroke-opacity:1"
       d="m 19,1044.3622 5,-5 c 0.235701,-0.2357 1,-1 1,-1 0,0 0.764299,0.7643 1,1 l 5,5"
       id="path3016"
       inkscape:connector-curvature="0"
       sodipodi:nodetypes="cscsc" />
    <path
       style="fill:#525252;fill-opacity:1;fill-rule:evenodd;stroke:none;stroke-width:1px;stroke-linecap:butt;stroke-linejoin:miter;stroke-opacity:1"
       d="m 8,1037.3622 8,8 -2,2 -6,-6 -6,6 -2,-2 z"
       id="path4157"
       inkscape:connector-curvature="0"
       sodipodi:nodetypes="ccccccc" />
    <path
       style="fill:#525252;fill-opacity:1;stroke:none;stroke-linejoin:miter"
       d="m 3,1043.3622 0,7 2,0 6,0 2,0 0,-2 0,-5 -2,0 0,5 -6,0 0,-5 z"
       id="rect4159"
       inkscape:connector-curvature="0"
       sodipodi:nodetypes="cccccccccccc" />
  </g>
</svg>
