<?xml version="1.0" encoding="UTF-8" standalone="no"?>
<!-- Created with Inkscape (http://www.inkscape.org/) -->

<svg
   xmlns:dc="http://purl.org/dc/elements/1.1/"
   xmlns:cc="http://creativecommons.org/ns#"
   xmlns:rdf="http://www.w3.org/1999/02/22-rdf-syntax-ns#"
   xmlns:svg="http://www.w3.org/2000/svg"
   xmlns="http://www.w3.org/2000/svg"
   xmlns:sodipodi="http://sodipodi.sourceforge.net/DTD/sodipodi-0.dtd"
   xmlns:inkscape="http://www.inkscape.org/namespaces/inkscape"
   width="16"
   height="16"
   id="svg2"
   version="1.1"
   inkscape:version="0.92.2 2405546, 2018-03-11"
   inkscape:export-filename="/all/lab/icons_theme/graydot/_src/16x16/actions/._reload_05.png"
   inkscape:export-xdpi="90"
   inkscape:export-ydpi="90"
   sodipodi:docname="go_last_01.svg">
  <defs
     id="defs4">
    <marker
       inkscape:stockid="TriangleInM"
       orient="auto"
       refY="0.0"
       refX="0.0"
       id="TriangleInM"
       style="overflow:visible">
      <path
         id="path4328"
         d="M 5.77,0.0 L -2.88,5.0 L -2.88,-5.0 L 5.77,0.0 z "
         style="fill-rule:evenodd;stroke:#000000;stroke-width:1.0pt"
         transform="scale(-0.4)" />
    </marker>
    <marker
       inkscape:stockid="Arrow2Sstart"
       orient="auto"
       refY="0.0"
       refX="0.0"
       id="Arrow2Sstart"
       style="overflow:visible">
      <path
         id="path4222"
         style="fill-rule:evenodd;stroke-width:0.62500000;stroke-linejoin:round"
         d="M 8.7185878,4.0337352 L -2.2072895,0.016013256 L 8.7185884,-4.0017078 C 6.9730900,-1.6296469 6.9831476,1.6157441 8.7185878,4.0337352 z "
         transform="scale(0.3) translate(-2.3,0)" />
    </marker>
    <marker
       inkscape:stockid="Arrow1Lstart"
       orient="auto"
       refY="0.0"
       refX="0.0"
       id="Arrow1Lstart"
       style="overflow:visible">
      <path
         id="path4192"
         d="M 0.0,0.0 L 5.0,-5.0 L -12.5,0.0 L 5.0,5.0 L 0.0,0.0 z "
         style="fill-rule:evenodd;stroke:#000000;stroke-width:1.0pt"
         transform="scale(0.8) translate(12.5,0)" />
    </marker>
  </defs>
  <sodipodi:namedview
     id="base"
     pagecolor="#ffffff"
     bordercolor="#666666"
     borderopacity="1.0"
     inkscape:pageopacity="0.0"
     inkscape:pageshadow="2"
     inkscape:zoom="31.678384"
     inkscape:cx="8.8765395"
     inkscape:cy="5.5824706"
     inkscape:document-units="px"
     inkscape:current-layer="layer1"
     showgrid="true"
     inkscape:window-width="1920"
     inkscape:window-height="1024"
     inkscape:window-x="0"
     inkscape:window-y="34"
     inkscape:window-maximized="1"
     inkscape:snap-bbox="true"
     showguides="true"
     inkscape:guide-bbox="true"
     inkscape:bbox-nodes="true">
    <inkscape:grid
       type="xygrid"
       id="grid2985"
       empspacing="5"
       visible="true"
       enabled="true"
       snapvisiblegridlinesonly="true" />
  </sodipodi:namedview>
  <metadata
     id="metadata7">
    <rdf:RDF>
      <cc:Work
         rdf:about="">
        <dc:format>image/svg+xml</dc:format>
        <dc:type
           rdf:resource="http://purl.org/dc/dcmitype/StillImage" />
        <dc:title />
      </cc:Work>
    </rdf:RDF>
  </metadata>
  <g
     inkscape:label="Layer 1"
     inkscape:groupmode="layer"
     id="layer1"
     transform="translate(0,-1036.3622)">
    <path
       style="fill:#525252;fill-opacity:1;stroke:none"
       d="m 6,1044.3622 -4,4 2,2 c 0,0 3,-3 4,-4 0.942809,-0.9428 0.942809,-3.0572 0,-4 -1,-1 -4,-4 -4,-4 l -2,2 z"
       id="path5299-2"
       inkscape:connector-curvature="0"
       sodipodi:nodetypes="cccssccc" />
    <path
       style="fill:#525252;fill-opacity:1;stroke:none"
       d="m 23,1044.3622 -4,4 2,2 c 0,0 3,-3 4,-4 0.942809,-0.9428 0.942809,-3.0572 0,-4 -1,-1 -4,-4 -4,-4 l -2,2 z"
       id="path5299-2-7"
       inkscape:connector-curvature="0"
       sodipodi:nodetypes="cccssccc" />
    <path
       sodipodi:type="arc"
       style="fill:#525252;fill-opacity:1;stroke:none"
       id="path2991"
       sodipodi:cx="10.5"
       sodipodi:cy="7.5"
       sodipodi:rx="1.5"
       sodipodi:ry="1.5"
       d="M 12,7.5 A 1.5,1.5 0 0 1 10.5,9 1.5,1.5 0 0 1 9,7.5 1.5,1.5 0 0 1 10.5,6 1.5,1.5 0 0 1 12,7.5 Z"
       transform="matrix(1.3333333,0,0,1.3333333,14,1034.3622)" />
    <circle
       style="fill:#525252;fill-opacity:1;stroke:none;stroke-width:1.33333325"
       id="path2991-3"
       cx="33"
       cy="1044.3622"
       r="2" />
    <rect
       style="fill:#525252;fill-opacity:1;stroke:none"
       id="rect3011"
       width="3"
       height="12.000017"
       x="11"
       y="1038.3622"
       rx="1.0000174"
       ry="1.0000174" />
  </g>
</svg>
