<?xml version="1.0" encoding="UTF-8" standalone="no"?>
<!-- Created with Inkscape (http://www.inkscape.org/) -->

<svg
   xmlns:dc="http://purl.org/dc/elements/1.1/"
   xmlns:cc="http://creativecommons.org/ns#"
   xmlns:rdf="http://www.w3.org/1999/02/22-rdf-syntax-ns#"
   xmlns:svg="http://www.w3.org/2000/svg"
   xmlns="http://www.w3.org/2000/svg"
   xmlns:sodipodi="http://sodipodi.sourceforge.net/DTD/sodipodi-0.dtd"
   xmlns:inkscape="http://www.inkscape.org/namespaces/inkscape"
   width="16"
   height="16"
   id="svg2"
   version="1.1"
   inkscape:version="0.92.2 2405546, 2018-03-11"
   inkscape:export-filename="/all/newlab/icons/graypaint/_src/16x16/actions/._fullscreen_01.png"
   inkscape:export-xdpi="90"
   inkscape:export-ydpi="90"
   sodipodi:docname="view_nofullscreen_01.svg">
  <defs
     id="defs4" />
  <sodipodi:namedview
     id="base"
     pagecolor="#ffffff"
     bordercolor="#666666"
     borderopacity="1.0"
     inkscape:pageopacity="0.0"
     inkscape:pageshadow="2"
     inkscape:zoom="31.678384"
     inkscape:cx="0.17390197"
     inkscape:cy="7.7160466"
     inkscape:document-units="px"
     inkscape:current-layer="layer1"
     showgrid="true"
     inkscape:window-width="1920"
     inkscape:window-height="1024"
     inkscape:window-x="0"
     inkscape:window-y="34"
     inkscape:window-maximized="1"
     inkscape:snap-bbox="true">
    <inkscape:grid
       type="xygrid"
       id="grid2985"
       empspacing="5"
       visible="true"
       enabled="true"
       snapvisiblegridlinesonly="true" />
  </sodipodi:namedview>
  <metadata
     id="metadata7">
    <rdf:RDF>
      <cc:Work
         rdf:about="">
        <dc:format>image/svg+xml</dc:format>
        <dc:type
           rdf:resource="http://purl.org/dc/dcmitype/StillImage" />
        <dc:title />
      </cc:Work>
    </rdf:RDF>
  </metadata>
  <g
     inkscape:label="Layer 1"
     inkscape:groupmode="layer"
     id="layer1"
     transform="translate(0,-1036.3622)">
    <path
       style="fill:#525252;fill-opacity:1;stroke:none"
       d="m 9,1038.3622 4,0 c 0.554,0 1,0.446 1,1 l 0,4 -2,0 c 0,0 0,-1 0,-2 0,-0.554 -0.446,-1 -1,-1 -1,0 -2,0 -2,0 z"
       id="rect2991"
       inkscape:connector-curvature="0"
       sodipodi:nodetypes="cssccsscc" />
    <path
       style="fill:#525252;fill-opacity:1;stroke:none"
       d="m 7,1050.3622 -4,0 c -0.554,0 -1,-0.446 -1,-1 l 0,-4 2,0 c 0,0 0,1 0,2 0,0.554 0.446,1 1,1 1,0 2,0 2,0 z"
       id="rect2991-1"
       inkscape:connector-curvature="0"
       sodipodi:nodetypes="cssccsscc" />
    <path
       style="fill:#525252;fill-opacity:1;stroke:none"
       d="m 2,1043.3622 0,-4 c 0,-0.554 0.446,-1 1,-1 l 4,0 0,2 c 0,0 -1,0 -2,0 -0.554,0 -1,0.446 -1,1 0,1 0,2 0,2 z"
       id="rect2991-1-5"
       inkscape:connector-curvature="0"
       sodipodi:nodetypes="cssccsscc" />
    <path
       style="fill:#525252;fill-opacity:1;stroke:none"
       d="m 14,1045.3622 0,4 c 0,0.554 -0.446,1 -1,1 l -4,0 0,-2 c 0,0 1,0 2,0 0.554,0 1,-0.446 1,-1 0,-1 0,-2 0,-2 z"
       id="rect2991-1-7"
       inkscape:connector-curvature="0"
       sodipodi:nodetypes="cssccsscc" />
    <rect
       style="fill:#525252;fill-opacity:1;stroke:none"
       id="rect2987"
       width="6"
       height="2"
       x="5"
       y="7"
       transform="translate(0,1036.3622)"
       rx="1"
       ry="1" />
  </g>
</svg>
