<?xml version="1.0" encoding="UTF-8" standalone="no"?>
<!-- Created with Inkscape (http://www.inkscape.org/) -->

<svg
   xmlns:dc="http://purl.org/dc/elements/1.1/"
   xmlns:cc="http://creativecommons.org/ns#"
   xmlns:rdf="http://www.w3.org/1999/02/22-rdf-syntax-ns#"
   xmlns:svg="http://www.w3.org/2000/svg"
   xmlns="http://www.w3.org/2000/svg"
   xmlns:sodipodi="http://sodipodi.sourceforge.net/DTD/sodipodi-0.dtd"
   xmlns:inkscape="http://www.inkscape.org/namespaces/inkscape"
   width="32"
   height="32"
   viewBox="0 0 8.4666665 8.4666669"
   version="1.1"
   id="svg8"
   inkscape:version="0.92.4 5da689c313, 2019-01-14"
   sodipodi:docname="file_torrent_03.svg">
  <defs
     id="defs2" />
  <sodipodi:namedview
     id="base"
     pagecolor="#ffffff"
     bordercolor="#666666"
     borderopacity="1.0"
     inkscape:pageopacity="0.0"
     inkscape:pageshadow="2"
     inkscape:zoom="22.4"
     inkscape:cx="3.5276371"
     inkscape:cy="16.358388"
     inkscape:document-units="px"
     inkscape:current-layer="layer1"
     showgrid="true"
     units="px"
     inkscape:showpageshadow="false"
     inkscape:window-width="1920"
     inkscape:window-height="1024"
     inkscape:window-x="0"
     inkscape:window-y="34"
     inkscape:window-maximized="1">
    <inkscape:grid
       type="xygrid"
       id="grid815" />
  </sodipodi:namedview>
  <metadata
     id="metadata5">
    <rdf:RDF>
      <cc:Work
         rdf:about="">
        <dc:format>image/svg+xml</dc:format>
        <dc:type
           rdf:resource="http://purl.org/dc/dcmitype/StillImage" />
        <dc:title></dc:title>
      </cc:Work>
    </rdf:RDF>
  </metadata>
  <g
     inkscape:label="Layer 1"
     inkscape:groupmode="layer"
     id="layer1"
     transform="translate(0,-288.53332)">
    <path
       style="fill:#525252;fill-opacity:1;stroke:none;stroke-width:1.05833328;stroke-miterlimit:4;stroke-dasharray:none;stroke-opacity:1"
       d="m 3.96875,293.82499 v -2.11667 l -0.2645833,-0.52917 v -1.05833 l 0.2645833,-0.26458 0.2645833,-1e-5 0.2645834,1e-5 0.2645833,0.26458 v 1.05833 l -0.2645833,0.52917 v 2.11667 l 0.2645833,0.52916 0.5291667,0.26459 0.2645833,0 0.5291667,-0.26459 L 6.35,293.82499 V 293.5604 H 6.0854167 v -0.26458 L 6.35,292.23749 h 0.2645833 l 0.2645834,1.05833 v 0.79375 L 6.6145834,294.61874 6.0854167,295.1479 5.55625,295.41249 H 5.0270834 L 4.4979167,295.1479 4.2333333,294.88332 3.96875,295.1479 3.4395833,295.41249 H 2.9104167 L 2.38125,295.1479 1.8520833,294.61874 1.5875,294.08957 v -0.79375 l 0.2645834,-1.05833 h 0.2645833 l 0.2645833,1.05833 v 0.26458 H 2.1166667 v 0.26459 l 0.2645833,0.52916 0.5291667,0.26459 H 3.175 l 0.5291667,-0.26459 z"
       id="rect838"
       inkscape:connector-curvature="0"
       sodipodi:nodetypes="ccccccccccccccccccccccccccccccccccccccccccccccc" />
  </g>
</svg>
