<?xml version="1.0" encoding="UTF-8" standalone="no"?>
<!-- Created with Inkscape (http://www.inkscape.org/) -->

<svg
   xmlns:dc="http://purl.org/dc/elements/1.1/"
   xmlns:cc="http://creativecommons.org/ns#"
   xmlns:rdf="http://www.w3.org/1999/02/22-rdf-syntax-ns#"
   xmlns:svg="http://www.w3.org/2000/svg"
   xmlns="http://www.w3.org/2000/svg"
   xmlns:sodipodi="http://sodipodi.sourceforge.net/DTD/sodipodi-0.dtd"
   xmlns:inkscape="http://www.inkscape.org/namespaces/inkscape"
   width="16"
   height="16"
   id="svg2"
   version="1.1"
   inkscape:version="0.92.2 2405546, 2018-03-11"
   inkscape:export-filename="/all/newlab/icons/graypaint/_src/16x16/blank.png"
   inkscape:export-xdpi="90"
   inkscape:export-ydpi="90"
   sodipodi:docname="doc_epub_01.svg">
  <defs
     id="defs4" />
  <sodipodi:namedview
     id="base"
     pagecolor="#ffffff"
     bordercolor="#666666"
     borderopacity="1.0"
     inkscape:pageopacity="0.0"
     inkscape:pageshadow="2"
     inkscape:zoom="31.678384"
     inkscape:cx="8.7338121"
     inkscape:cy="10.479693"
     inkscape:document-units="px"
     inkscape:current-layer="layer1"
     showgrid="true"
     inkscape:window-width="1920"
     inkscape:window-height="1024"
     inkscape:window-x="0"
     inkscape:window-y="34"
     inkscape:window-maximized="1"
     inkscape:snap-bbox="true"
     inkscape:bbox-paths="true"
     inkscape:bbox-nodes="true"
     inkscape:object-nodes="true">
    <inkscape:grid
       type="xygrid"
       id="grid2985"
       empspacing="5"
       visible="true"
       enabled="true"
       snapvisiblegridlinesonly="true" />
  </sodipodi:namedview>
  <metadata
     id="metadata7">
    <rdf:RDF>
      <cc:Work
         rdf:about="">
        <dc:format>image/svg+xml</dc:format>
        <dc:type
           rdf:resource="http://purl.org/dc/dcmitype/StillImage" />
        <dc:title />
      </cc:Work>
    </rdf:RDF>
  </metadata>
  <g
     inkscape:label="Layer 1"
     inkscape:groupmode="layer"
     id="layer1"
     transform="translate(0,-1036.3622)">
    <path
       style="fill:#525252;fill-opacity:1;stroke:none"
       d="M 4 2 C 3.4459904 2 3 2.4459904 3 3 L 3 13 C 3 13.55401 3.4459904 14 4 14 L 7.6054688 14 L 4.3808594 10.775391 A 1.0001 1.0001 0 0 1 4.0546875 10.302734 A 1.0001 1.0001 0 0 1 4.0371094 10.242188 A 1.0001 1.0001 0 0 1 4.4199219 9.1660156 L 10.1875 3.3984375 A 1.0001 1.0001 0 0 1 10.919922 2.984375 A 1.0001 1.0001 0 0 1 10.966797 2.9824219 A 1.0001 1.0001 0 0 1 10.990234 2.9804688 A 1.0001 1.0001 0 0 1 11.009766 2.9804688 A 1.0001 1.0001 0 0 1 11.099609 2.984375 A 1.0001 1.0001 0 0 1 11.833984 3.4003906 L 13 4.5664062 L 13 3 C 13 2.4459904 12.55401 2 12 2 L 4 2 z M 11.009766 5.4042969 L 6.4238281 9.9902344 L 10.433594 14 L 12 14 C 12.55401 14 13 13.55401 13 13 L 13 11.414062 L 12.716797 11.697266 A 1.0001 1.0001 0 1 1 11.302734 10.283203 L 13 8.5859375 L 13 7.3945312 L 11.009766 5.4042969 z "
       transform="translate(0,1036.3622)"
       id="rect2998-4" />
  </g>
</svg>
