<?xml version="1.0" encoding="UTF-8" standalone="no"?>
<!-- Created with Inkscape (http://www.inkscape.org/) -->

<svg
   xmlns:dc="http://purl.org/dc/elements/1.1/"
   xmlns:cc="http://creativecommons.org/ns#"
   xmlns:rdf="http://www.w3.org/1999/02/22-rdf-syntax-ns#"
   xmlns:svg="http://www.w3.org/2000/svg"
   xmlns="http://www.w3.org/2000/svg"
   xmlns:sodipodi="http://sodipodi.sourceforge.net/DTD/sodipodi-0.dtd"
   xmlns:inkscape="http://www.inkscape.org/namespaces/inkscape"
   width="16"
   height="16"
   id="svg2"
   version="1.1"
   inkscape:version="0.92.2 2405546, 2018-03-11"
   inkscape:export-filename="/all/lab/icontheme/graydot/_src/16x16/mimetypes/._doc_txt_03.png"
   inkscape:export-xdpi="90"
   inkscape:export-ydpi="90"
   sodipodi:docname="doc_odt_01.svg">
  <defs
     id="defs4" />
  <sodipodi:namedview
     id="base"
     pagecolor="#ffffff"
     bordercolor="#666666"
     borderopacity="1.0"
     inkscape:pageopacity="0.0"
     inkscape:pageshadow="2"
     inkscape:zoom="31.678384"
     inkscape:cx="10.322779"
     inkscape:cy="9.7837025"
     inkscape:document-units="px"
     inkscape:current-layer="layer1"
     showgrid="true"
     inkscape:window-width="1920"
     inkscape:window-height="1024"
     inkscape:window-x="0"
     inkscape:window-y="34"
     inkscape:window-maximized="1"
     inkscape:snap-bbox="true">
    <inkscape:grid
       type="xygrid"
       id="grid2985"
       empspacing="5"
       visible="true"
       enabled="true"
       snapvisiblegridlinesonly="true" />
  </sodipodi:namedview>
  <metadata
     id="metadata7">
    <rdf:RDF>
      <cc:Work
         rdf:about="">
        <dc:format>image/svg+xml</dc:format>
        <dc:type
           rdf:resource="http://purl.org/dc/dcmitype/StillImage" />
        <dc:title />
      </cc:Work>
    </rdf:RDF>
  </metadata>
  <g
     inkscape:label="Layer 1"
     inkscape:groupmode="layer"
     id="layer1"
     transform="translate(0,-1036.3622)">
    <path
       style="fill:#525252;fill-opacity:1;stroke:none"
       d="M 4 2 C 3.446 2 3 2.446 3 3 L 3 13 C 3 13.554 3.446 14 4 14 L 12 14 C 12.554 14 13 13.554 13 13 L 13 3 C 13 2.446 12.554 2 12 2 L 7 2 L 7 4 L 9 4 C 9.5283126 3.9925 10 4.4716 10 5 C 10 5.5284 9.5283126 6.01 9 6 L 7 6 L 7 9 C 7 10.0556 7.5 10.25 8 10.25 C 8.5 10.25 9 10.0556 9 9 C 8.9925283 8.4717 9.4716346 8 10 8 C 10.528365 8 11.0075 8.4717 11 9 C 11 10.9444 9.5 12.25 8 12.25 C 6.5 12.25 5 10.9444 5 9 L 5 2 L 4 2 z "
       transform="translate(0,1036.3622)"
       id="rect2987" />
  </g>
</svg>
