<?xml version="1.0" encoding="UTF-8" standalone="no"?>
<!-- Created with Inkscape (http://www.inkscape.org/) -->

<svg
   xmlns:dc="http://purl.org/dc/elements/1.1/"
   xmlns:cc="http://creativecommons.org/ns#"
   xmlns:rdf="http://www.w3.org/1999/02/22-rdf-syntax-ns#"
   xmlns:svg="http://www.w3.org/2000/svg"
   xmlns="http://www.w3.org/2000/svg"
   xmlns:sodipodi="http://sodipodi.sourceforge.net/DTD/sodipodi-0.dtd"
   xmlns:inkscape="http://www.inkscape.org/namespaces/inkscape"
   width="16"
   height="16"
   id="svg2"
   version="1.1"
   inkscape:version="0.92.2 2405546, 2018-03-11"
   inkscape:export-filename="/all/lab/icontheme/graydot/_src/16x16/mimetypes/._doc_txt_03.png"
   inkscape:export-xdpi="90"
   inkscape:export-ydpi="90"
   sodipodi:docname="file_database_02.svg">
  <defs
     id="defs4" />
  <sodipodi:namedview
     id="base"
     pagecolor="#ffffff"
     bordercolor="#666666"
     borderopacity="1.0"
     inkscape:pageopacity="0.0"
     inkscape:pageshadow="2"
     inkscape:zoom="31.678384"
     inkscape:cx="-8.491312"
     inkscape:cy="7.7318302"
     inkscape:document-units="px"
     inkscape:current-layer="layer1"
     showgrid="true"
     inkscape:window-width="1920"
     inkscape:window-height="1024"
     inkscape:window-x="0"
     inkscape:window-y="34"
     inkscape:window-maximized="1"
     inkscape:snap-bbox="true">
    <inkscape:grid
       type="xygrid"
       id="grid2985"
       empspacing="5"
       visible="true"
       enabled="true"
       snapvisiblegridlinesonly="true" />
  </sodipodi:namedview>
  <metadata
     id="metadata7">
    <rdf:RDF>
      <cc:Work
         rdf:about="">
        <dc:format>image/svg+xml</dc:format>
        <dc:type
           rdf:resource="http://purl.org/dc/dcmitype/StillImage" />
        <dc:title />
      </cc:Work>
    </rdf:RDF>
  </metadata>
  <g
     inkscape:label="Layer 1"
     inkscape:groupmode="layer"
     id="layer1"
     transform="translate(0,-1036.3622)">
    <path
       style="fill:#525252;fill-opacity:1;stroke:none"
       d="M 4 2 C 3.446 2 3 2.446 3 3 L 3 5 L 5 5 L 5 4 A 1.0001 1.0001 0 0 1 5.875 2.96875 A 1.0001 1.0001 0 0 1 7 4 L 7 9 C 7 9.8333 6.6258848 10.5304 6.09375 11.0625 C 5.5616152 11.5946 4.8333333 12 4 12 L 3 12 L 3 13 C 3 13.554 3.446 14 4 14 L 12 14 C 12.554 14 13 13.554 13 13 L 13 12 L 12 12 C 11.166667 12 10.438385 11.5946 9.90625 11.0625 C 9.3741152 10.5304 9 9.8333 9 9 L 9 4 A 1.0001 1.0001 0 0 1 9.875 2.96875 A 1.0001 1.0001 0 0 1 11 4 L 11 5 L 13 5 L 13 3 C 13 2.446 12.554 2 12 2 L 4 2 z M 3 7 L 3 10 L 4 10 C 4.1666667 10 4.4383848 9.87415 4.65625 9.65625 C 4.8741152 9.43845 5 9.1667 5 9 L 5 7 L 3 7 z M 11 7 L 11 9 C 11 9.1667 11.125885 9.43845 11.34375 9.65625 C 11.561615 9.87415 11.833333 10 12 10 L 13 10 L 13 7 L 11 7 z "
       transform="translate(0,1036.3622)"
       id="rect2987" />
  </g>
</svg>
