<?xml version="1.0" encoding="UTF-8" standalone="no"?>
<!-- Created with Inkscape (http://www.inkscape.org/) -->

<svg
   xmlns:dc="http://purl.org/dc/elements/1.1/"
   xmlns:cc="http://creativecommons.org/ns#"
   xmlns:rdf="http://www.w3.org/1999/02/22-rdf-syntax-ns#"
   xmlns:svg="http://www.w3.org/2000/svg"
   xmlns="http://www.w3.org/2000/svg"
   xmlns:sodipodi="http://sodipodi.sourceforge.net/DTD/sodipodi-0.dtd"
   xmlns:inkscape="http://www.inkscape.org/namespaces/inkscape"
   width="16"
   height="16"
   id="svg2"
   version="1.1"
   inkscape:version="0.92.2 2405546, 2018-03-11"
   inkscape:export-filename="/all/newlab/icons/graypaint/_src/16x16/blank.png"
   inkscape:export-xdpi="90"
   inkscape:export-ydpi="90"
   sodipodi:docname="file_blender_01.svg">
  <defs
     id="defs4" />
  <sodipodi:namedview
     id="base"
     pagecolor="#ffffff"
     bordercolor="#666666"
     borderopacity="1.0"
     inkscape:pageopacity="0.0"
     inkscape:pageshadow="2"
     inkscape:zoom="31.678384"
     inkscape:cx="6.0602875"
     inkscape:cy="5.9160403"
     inkscape:document-units="px"
     inkscape:current-layer="layer1"
     showgrid="true"
     inkscape:window-width="1920"
     inkscape:window-height="1024"
     inkscape:window-x="0"
     inkscape:window-y="34"
     inkscape:window-maximized="1"
     inkscape:snap-bbox="true">
    <inkscape:grid
       type="xygrid"
       id="grid2985"
       empspacing="5"
       visible="true"
       enabled="true"
       snapvisiblegridlinesonly="true" />
  </sodipodi:namedview>
  <metadata
     id="metadata7">
    <rdf:RDF>
      <cc:Work
         rdf:about="">
        <dc:format>image/svg+xml</dc:format>
        <dc:type
           rdf:resource="http://purl.org/dc/dcmitype/StillImage" />
        <dc:title />
      </cc:Work>
    </rdf:RDF>
  </metadata>
  <g
     inkscape:label="Layer 1"
     inkscape:groupmode="layer"
     id="layer1"
     transform="translate(0,-1036.3622)">
    <path
       style="fill:#525252;fill-opacity:1;stroke:none"
       d="M 4 2 C 3.4459904 2 3 2.4459904 3 3 L 3 13 C 3 13.55401 3.4459904 14 4 14 L 5.90625 14 L 8.90625 11 L 6 11 A 1.0043849 1.0043849 0 0 1 5.8125 9 A 1.0001 1.0001 0 0 1 6 9 L 12.25 9 L 10.15625 6.90625 A 1.0001 1.0001 0 0 1 10.875 5.1875 A 1.0001 1.0001 0 0 1 11.59375 5.5 L 13 6.90625 L 13 3 C 13 2.4459904 12.55401 2 12 2 L 4 2 z M 13 11 C 12.181602 11 11.445091 11.320556 10.90625 11.84375 C 10.895748 11.853947 10.885351 11.864649 10.875 11.875 C 10.333587 12.416413 10 13.16565 10 14 L 12 14 C 12.55401 14 13 13.55401 13 13 L 13 11 z "
       transform="translate(0,1036.3622)"
       id="rect2998-4" />
  </g>
</svg>
